{"title":"Exposed 2016 BRRip x264 AAC-SSN","uid":13889122,"size":1234074666,"categoryP":"video","categoryS":"movies","magnet":"?xt=urn:btih:0552de1298f790b028321ab04ed222ec770bb9d2&amp;dn=Exposed+2016+BRRip+x264+AAC-SSN&amp;tr=udp%3A%2F%2Ftracker.leechers-paradise.org%3A6969&amp;tr=udp%3A%2F%2Fzer0day.ch%3A1337&amp;tr=udp%3A%2F%2Fopen.demonii.com%3A1337&amp;tr=udp%3A%2F%2Ftracker.coppersurfer.tk%3A6969&amp;tr=udp%3A%2F%2Fexodus.desync.com%3A6969","seeders":1,"leechers":0,"uploader":"somespirit","files":2,"time":1458207190,"description":"IMDB:  http://www.imdb.com/title/tt4019560/\r\n\r\n Source: Exposed.2016.1080p.BluRay.DTS-HD.MA.5.1.x264-SOLiD\r\n\r\n Subtitles: English for foreign parts\r\n\r\n\r\n General\r\n Complete name                            : Exposed 2016 BRRip x264 AAC-SSN.mkv\r\n Format                                   : Matroska\r\n Format version                           : Version 4 / Version 2\r\n File size                                : 1.15 GiB\r\n Duration                                 : 1h 41mn\r\n Overall bit rate                         : 1 615 Kbps\r\n Encoded date                             : UTC 2016-03-16 12:18:11\r\n Writing application                      : mkvmerge v8.6.1 ('Flying') 64bit\r\n Writing library                          : libebml v1.3.3 + libmatroska v1.4.4\r\n\r\n Video\r\n ID                                       : 1\r\n Format                                   : AVC\r\n Format/Info                              : Advanced Video Codec\r\n Format profile                           :   \r\n Format settings, CABAC                   : Yes\r\n Format settings, ReFrames                : 5 frames\r\n Codec ID                                 : V_MPEG4/ISO/AVC\r\n Duration                                 : 1h 41mn\r\n Bit rate                                 : 1 282 Kbps\r\n Width                                    : 900 pixels\r\n Height                                   : 376 pixels\r\n Display aspect ratio                     : 2.40:1\r\n Frame rate mode                          : Constant\r\n Frame rate                               : 24.000 fps\r\n Color space                              : YUV\r\n Chroma subsampling                       : 4:2:0\r\n Bit depth                                : 8 bits\r\n Scan type                                : Progressive\r\n Bits/(Pixel*Frame)                       : 0.189\r\n Stream size                              : 933 MiB (79%)\r\n Writing library                          : x264 core 148 r2665 a01e339\r\n Language                                 : English\r\n Default                                  : Yes\r\n Forced                                   : No\r\n\r\n Audio\r\n ID                                       : 2\r\n Format                                   : AAC\r\n Format/Info                              : Advanced Audio Codec\r\n Format profile                           : LC\r\n Codec ID                                 : A_AAC\r\n Duration                                 : 1h 41mn\r\n Bit rate                                 : 330 Kbps\r\n Channel(s)                               : 6 channels\r\n Channel positions                        : Front: L C R, Side: L R, LFE\r\n Sampling rate                            : 32.0 KHz\r\n Frame rate                               : 31.250 fps (1024 spf)\r\n Compression mode                         : Lossy\r\n Stream size                              : 240 MiB (20%)\r\n Language                                 : English\r\n Default                                  : Yes\r\n Forced                                   : No\r\n\r\n Text\r\n ID                                       : 3\r\n Format                                   : PGS\r\n Muxing mode                              : zlib\r\n Codec ID                                 : S_HDMV/PGS\r\n Codec ID/Info                            : Picture based subtitle format used on BDs/HD-DVDs\r\n Duration                                 : 1h 31mn\r\n Bit rate                                 : 2 572 bps\r\n Count of elements                        : 648\r\n Stream size                              : 1.68 MiB (0%)\r\n Language                                 : English\r\n Default                                  : Yes\r\n Forced                                   : No\r\n\r\n \nhttp://lookpic.com/O/i2/1931/Y3MjHqvK.png\r\n \nhttp://lookpic.com/O/i2/484/oELeZLHB.png\r\n \nhttp://lookpic.com/O/i2/123/3FD9oqxS.png","torrent":{"xt":"urn:btih:0552de1298f790b028321ab04ed222ec770bb9d2","amp;dn":"Exposed+2016+BRRip+x264+AAC-SSN","amp;tr":["udp%3A%2F%2Ftracker.leechers-paradise.org%3A6969","udp%3A%2F%2Fzer0day.ch%3A1337","udp%3A%2F%2Fopen.demonii.com%3A1337","udp%3A%2F%2Ftracker.coppersurfer.tk%3A6969","udp%3A%2F%2Fexodus.desync.com%3A6969"],"infoHash":"0552de1298f790b028321ab04ed222ec770bb9d2","infoHashBuffer":{"type":"Buffer","data":[5,82,222,18,152,247,144,176,40,50,26,176,78,210,34,236,119,11,185,210]},"announce":[],"urlList":[]}}